<svg width="119" height="69" viewBox="0 0 119 69" fill="none" xmlns="http://www.w3.org/2000/svg">
<path d="M7.255 68C5.355 68 3.70833 67.3983 2.315 66.195C0.921667 64.9283 0.225 63.4083 0.225 61.635V7.865C0.225 6.09167 0.89 4.60333 2.22 3.4C3.61333 2.13333 5.29167 1.5 7.255 1.5H32.43C38.7633 1.5 43.7983 3.21 47.535 6.63C51.335 10.05 53.235 14.6417 53.235 20.405C53.235 23.0017 52.5067 25.5033 51.05 27.91C49.6567 30.2533 47.7883 32.1217 45.445 33.515V33.895C48.675 35.035 51.24 36.9033 53.14 39.5C55.04 42.0967 55.99 44.9783 55.99 48.145C55.99 52.0083 55.0717 55.46 53.235 58.5C51.3983 61.4767 48.8333 63.82 45.54 65.53C42.2467 67.1767 38.4783 68 34.235 68H7.255ZM32.24 28.955C34.2033 28.955 35.85 28.195 37.18 26.675C38.5733 25.0917 39.27 23.1917 39.27 20.975C39.27 18.5683 38.6367 16.7 37.37 15.37C36.1033 13.9767 34.3933 13.28 32.24 13.28H13.81V28.955H32.24ZM34.14 56.22C36.5467 56.22 38.4467 55.5233 39.84 54.13C41.2967 52.6733 42.025 50.7417 42.025 48.335C42.025 45.865 41.3283 43.965 39.935 42.635C38.5417 41.2417 36.61 40.545 34.14 40.545H13.81V56.22H34.14ZM68.0394 68.855C64.9994 68.6017 62.6244 67.62 60.9144 65.91C59.2044 64.2 58.3494 62.0467 58.3494 59.45C58.3494 57.4233 58.8561 55.3017 59.8694 53.085L81.3394 5.3C82.0361 3.71666 82.9227 2.545 83.9994 1.785C85.1394 1.025 86.5327 0.644995 88.1794 0.644995C89.8261 0.644995 91.1877 1.025 92.2644 1.785C93.4044 2.545 94.3228 3.71666 95.0194 5.3L116.489 53.085C117.503 55.3017 118.009 57.3917 118.009 59.355C118.009 62.015 117.154 64.2 115.444 65.91C113.734 67.62 111.328 68.6017 108.224 68.855L100.244 51.47H76.0194L68.0394 68.855ZM95.9694 39.5L86.1844 15.18L84.8544 15.75L87.4194 22.115L80.1994 39.5H95.9694Z" fill="black"/>
</svg>
