<svg width="97" height="92" viewBox="0 0 97 92" fill="none" xmlns="http://www.w3.org/2000/svg">
<path d="M64.6667 22.9999H76.7917C77.8636 22.9999 78.8916 23.4038 79.6496 24.1227C80.4075 24.8416 80.8334 25.8166 80.8334 26.8333V68.9999C80.8334 71.0332 79.9817 72.9833 78.4658 74.4211C76.9499 75.8588 74.8939 76.6666 72.75 76.6666C70.6062 76.6666 68.5502 75.8588 67.0342 74.4211C65.5183 72.9833 64.6667 71.0332 64.6667 68.9999V19.1666C64.6667 18.1499 64.2409 17.1749 63.4829 16.456C62.7249 15.7371 61.6969 15.3333 60.625 15.3333H20.2084C19.1364 15.3333 18.1084 15.7371 17.3505 16.456C16.5925 17.1749 16.1667 18.1499 16.1667 19.1666V65.1666C16.1667 68.2166 17.4441 71.1416 19.718 73.2983C21.9919 75.455 25.0759 76.6666 28.2917 76.6666H72.75M32.3334 30.6666H48.5M32.3334 45.9999H48.5M32.3334 61.3333H48.5" stroke="black" stroke-width="2" stroke-linecap="round" stroke-linejoin="round"/>
</svg>
