<svg width="82" height="82" viewBox="0 0 82 82" fill="none" xmlns="http://www.w3.org/2000/svg">
<g clip-path="url(#clip0_2_107)">
<path d="M72.8889 13.6665H9.1111C7.90289 13.6665 6.74417 14.1465 5.88983 15.0008C5.0355 15.8551 4.55554 17.0139 4.55554 18.2221V63.7776C4.55554 64.9858 5.0355 66.1446 5.88983 66.9989C6.74417 67.8532 7.90289 68.3332 9.1111 68.3332H72.8889C74.0971 68.3332 75.2558 67.8532 76.1101 66.9989C76.9645 66.1446 77.4444 64.9858 77.4444 63.7776V18.2221C77.4444 17.0139 76.9645 15.8551 76.1101 15.0008C75.2558 14.1465 74.0971 13.6665 72.8889 13.6665ZM69.3811 63.7776H12.8922L28.8367 47.2865L25.5567 44.1204L9.1111 61.1354V21.6843L37.4239 49.8604C38.2774 50.7089 39.432 51.1851 40.6355 51.1851C41.8391 51.1851 42.9937 50.7089 43.8472 49.8604L72.8889 20.9782V60.8393L56.1244 44.0748L52.9128 47.2865L69.3811 63.7776ZM12.095 18.2221H69.1989L40.6355 46.6259L12.095 18.2221Z" fill="black"/>
</g>
<defs>
<clipPath id="clip0_2_107">
<rect width="82" height="82" fill="white"/>
</clipPath>
</defs>
</svg>
