<svg width="175" height="177" viewBox="0 0 175 177" fill="none" xmlns="http://www.w3.org/2000/svg">
<g clip-path="url(#clip0_2_91)">
<path d="M175 88.5C175 39.6231 135.825 0 87.5 0C39.1754 0 0 39.6224 0 88.5C0 132.673 31.9977 169.286 73.8281 175.925V114.082H51.6113V88.5H73.8281V69.0023C73.8281 46.822 86.8916 34.5703 106.878 34.5703C116.452 34.5703 126.465 36.2988 126.465 36.2988V58.0781H115.432C104.561 58.0781 101.172 64.9002 101.172 71.8993V88.5H125.439L121.56 114.082H101.172V175.925C143.002 169.286 175 132.673 175 88.5Z" fill="black"/>
<path d="M121.56 114.082L125.439 88.5H101.172V71.8993C101.172 64.8995 104.562 58.0781 115.432 58.0781H126.465V36.2988C126.465 36.2988 116.452 34.5703 106.878 34.5703C86.8916 34.5703 73.8281 46.822 73.8281 69.0023V88.5H51.6113V114.082H73.8281V175.925C78.3509 176.642 82.922 177.001 87.5 177C92.078 177.001 96.6491 176.642 101.172 175.925V114.082H121.56Z" fill="white"/>
</g>
<defs>
<clipPath id="clip0_2_91">
<rect width="175" height="177" fill="white"/>
</clipPath>
</defs>
</svg>
