<svg width="235" height="235" viewBox="0 0 235 235" fill="none" xmlns="http://www.w3.org/2000/svg">
<path d="M176.25 29.375H58.75C42.1042 29.375 29.375 42.1042 29.375 58.75V176.25C29.375 192.896 42.1042 205.625 58.75 205.625H176.25C192.896 205.625 205.625 192.896 205.625 176.25V58.75C205.625 42.1042 192.896 29.375 176.25 29.375ZM117.5 88.125C134.146 88.125 146.875 100.854 146.875 117.5C146.875 134.146 134.146 146.875 117.5 146.875C100.854 146.875 88.125 134.146 88.125 117.5C88.125 100.854 100.854 88.125 117.5 88.125ZM154.708 68.5417C154.708 61.6875 160.583 56.7917 166.458 56.7917C172.333 56.7917 178.208 62.6667 178.208 68.5417C178.208 74.4167 173.312 80.2917 166.458 80.2917C159.604 80.2917 154.708 75.3958 154.708 68.5417ZM176.25 186.042H58.75C52.875 186.042 48.9583 182.125 48.9583 176.25V117.5H68.5417C68.5417 144.917 90.0833 166.458 117.5 166.458C144.917 166.458 166.458 144.917 166.458 117.5H186.042V176.25C186.042 182.125 182.125 186.042 176.25 186.042Z" fill="black"/>
</svg>
