<svg width="171" height="181" viewBox="0 0 171 181" fill="none" xmlns="http://www.w3.org/2000/svg">
<g clip-path="url(#clip0_2_96)">
<path fill-rule="evenodd" clip-rule="evenodd" d="M171 35.2407C164.587 38.2003 157.796 40.1399 150.848 40.9965C158.143 36.4696 163.627 29.2809 166.272 20.7788C159.372 25.0413 151.842 28.0398 143.999 29.6478C140.693 25.987 136.718 23.0756 132.316 21.0905C127.914 19.1054 123.177 18.088 118.392 18.1C99.0176 18.1 83.3112 34.4624 83.3112 54.662C83.3112 57.5218 83.619 60.3092 84.2175 62.988C70.3195 62.2896 56.7116 58.5328 44.2619 51.9571C31.8122 45.3815 20.794 36.1314 11.9102 24.797C8.79441 30.3572 7.15221 36.7037 7.15635 43.1685C7.16558 49.2137 8.59784 55.1612 11.3237 60.4734C14.0495 65.7857 17.983 70.2953 22.7687 73.5946C17.2048 73.4142 11.7595 71.8484 6.8742 69.0243V69.4768C6.8742 87.1877 18.9639 101.966 35.0037 105.324C29.8364 106.784 24.4258 107 19.1691 105.957C23.6322 120.474 36.5854 131.044 51.9412 131.343C39.4583 141.528 24.132 147.036 8.37045 146.999C5.57303 146.996 2.77815 146.821 0 146.474C16.0938 157.233 34.7447 162.93 53.7795 162.9C118.306 162.9 153.592 107.197 153.592 58.8974C153.592 57.3136 153.558 55.7299 153.49 54.1642C160.345 49.0143 166.275 42.6087 171 35.2497V35.2407Z" fill="black"/>
</g>
<defs>
<clipPath id="clip0_2_96">
<rect width="171" height="181" fill="white"/>
</clipPath>
</defs>
</svg>
