<svg width="184" height="184" viewBox="0 0 184 184" fill="none" xmlns="http://www.w3.org/2000/svg">
<path d="M40.894 51.106C30.1854 51.3133 19.9853 55.7129 12.4854 63.3595C4.98553 71.006 0.784241 81.2893 0.784241 92C0.784241 102.711 4.98553 112.994 12.4854 120.64C19.9853 128.287 30.1854 132.687 40.894 132.894C46.2633 132.893 51.5798 131.834 56.5399 129.779C61.5001 127.723 66.0068 124.711 69.8028 120.913C73.5987 117.116 76.6095 112.608 78.6633 107.647C80.7171 102.686 81.7737 97.3692 81.7727 92C81.7737 86.6307 80.7171 81.3138 78.6633 76.3528C76.6095 71.3919 73.5987 66.8841 69.8028 63.0867C66.0068 59.2893 61.5001 56.2768 56.5399 54.2212C51.5798 52.1655 46.2633 51.107 40.894 51.106ZM143.106 51.106C137.737 51.107 132.42 52.1655 127.46 54.2212C122.5 56.2768 117.993 59.2893 114.197 63.0867C110.401 66.8841 107.39 71.3919 105.337 76.3528C103.283 81.3138 102.226 86.6307 102.227 92C102.227 102.844 106.535 113.243 114.203 120.911C121.87 128.579 132.27 132.886 143.114 132.886C153.957 132.886 164.357 128.579 172.025 120.911C179.692 113.243 184 102.844 184 92C183.998 81.1548 179.689 70.7544 172.02 63.0858C164.352 55.4171 153.951 51.108 143.106 51.106Z" fill="black"/>
</svg>
