<svg width="44" height="44" viewBox="0 0 44 44" fill="none" xmlns="http://www.w3.org/2000/svg">
<path d="M26.7437 29.3241L29.3361 26.7327L40.3535 37.7501L37.7612 40.3416L26.7437 29.3241Z" fill="#616161"/>
<path d="M18.3333 33C26.4335 33 33 26.4335 33 18.3333C33 10.2331 26.4335 3.66666 18.3333 3.66666C10.2331 3.66666 3.66666 10.2331 3.66666 18.3333C3.66666 26.4335 10.2331 33 18.3333 33Z" fill="#616161"/>
<path d="M29.7458 32.395L32.3373 29.8027L40.3086 37.774L37.7163 40.3663L29.7458 32.395Z" fill="#37474F"/>
<path d="M18.3333 30.25C24.9147 30.25 30.25 24.9147 30.25 18.3333C30.25 11.7519 24.9147 6.41666 18.3333 6.41666C11.7519 6.41666 6.41666 11.7519 6.41666 18.3333C6.41666 24.9147 11.7519 30.25 18.3333 30.25Z" fill="#64B5F6"/>
<path d="M24.6583 13.0167C23.1 11.1833 20.8083 10.0833 18.3333 10.0833C15.8583 10.0833 13.5667 11.1833 12.0083 13.0167C11.6417 13.3833 11.7333 14.025 12.1 14.3C12.4667 14.6667 13.1083 14.575 13.3833 14.2083C14.6667 12.7417 16.4083 11.9167 18.3333 11.9167C20.2583 11.9167 22 12.7417 23.2833 14.2083C23.4667 14.3917 23.7417 14.575 24.0167 14.575C24.2 14.575 24.475 14.4833 24.5667 14.3917C24.9333 14.025 24.9333 13.3833 24.6583 13.0167Z" fill="#BBDEFB"/>
</svg>
